<svg xmlns="http://www.w3.org/2000/svg" viewBox="0 0 64 64" role="img" aria-label="Festival and event">
  <rect width="64" height="64" rx="16" fill="#FFEDD5"/>
  <g transform="translate(6 6) scale(0.33)" fill="#C2410C">
    <path d="M155.941,24.663c0.965,0,1.752-0.785,1.752-1.752v-3.504c0-0.968-0.787-1.752-1.752-1.752H1.752
      C0.786,17.654,0,18.438,0,19.407v3.501c0,0.967,0.786,1.752,1.752,1.752c4.51,0.003,8.179,3.672,8.179,8.179
      c0,4.505-3.668,8.172-8.179,8.175C0.786,41.014,0,41.798,0,42.767v5.26c0,0.967,0.786,1.752,1.752,1.752
      c4.51,0,8.179,3.668,8.179,8.179c0,4.505-3.668,8.172-8.179,8.172C0.786,66.129,0,66.913,0,67.882v5.26
      c0,0.967,0.786,1.752,1.752,1.752c4.51,0.003,8.179,3.669,8.179,8.176s-3.668,8.176-8.179,8.179C0.786,91.248,0,92.031,0,93v3.505
      c0,0.968,0.786,1.752,1.752,1.752h15.88l1.826,3.795c0.424,0.876,1.483,1.239,2.337,0.821c3.306-1.588,7.286-0.185,8.867,3.121
      c1.586,3.306,0.188,7.282-3.123,8.87c-0.417,0.202-0.739,0.562-0.893,0.999c-0.154,0.438-0.127,0.925,0.073,1.342l1.93,4.011
      c0.421,0.876,1.475,1.239,2.334,0.821c3.304-1.588,7.286-0.185,8.867,3.121c1.583,3.299,0.185,7.282-3.123,8.87
      c-0.869,0.418-1.241,1.465-0.82,2.338l1.282,2.676c0.301,0.626,0.933,0.996,1.581,0.996c0.255,0,0.512-0.055,0.756-0.171
      l86.767-41.61h22.34h7.304c0.968,0,1.752-0.784,1.752-1.752V93c0-0.969-0.784-1.752-1.752-1.752c-4.507,0-8.173-3.665-8.173-8.176
      c0-4.51,3.666-8.175,8.173-8.175c0.968,0,1.752-0.785,1.752-1.752v-5.26c0-0.968-0.784-1.752-1.752-1.752
      c-4.507,0-8.173-3.667-8.173-8.175c0-4.511,3.666-8.179,8.173-8.179c0.968,0,1.752-0.785,1.752-1.752V42.77
      c0-0.968-0.784-1.752-1.752-1.752c-4.507,0-8.173-3.67-8.173-8.179C147.769,28.332,151.434,24.663,155.941,24.663z
      M40.885,135.329c3.062-2.957,4.067-7.646,2.13-11.684c-2.163-4.507-7.24-6.7-11.901-5.386l-0.539-1.127
      c1.689-1.204,2.967-2.898,3.672-4.89c0.9-2.56,0.749-5.318-0.425-7.762s-3.227-4.288-5.785-5.188
      c-2.002-0.709-4.125-0.767-6.112-0.199l-0.402-0.838h2.424h12.713l11.865,23.257c0.31,0.605,0.922,0.955,1.561,0.955
      c0.241,0,0.495-0.052,0.726-0.158l52.777-24.054h14.612L40.885,135.329z M51.372,109.229c0.264,0.705,0.933,1.139,1.641,1.139
      c0.207,0,0.409-0.033,0.616-0.112L85.657,98.26h9.486l-44.257,20.174L40.594,98.26h35.07l-23.269,8.713
      C51.492,107.312,51.033,108.321,51.372,109.229z M154.189,44.392v2.014c-5.612,0.849-9.924,5.707-9.924,11.552
      c0,5.845,4.312,10.701,9.924,11.546v2.017c-5.612,0.849-9.924,5.703-9.924,11.548c0,5.845,4.312,10.701,9.924,11.546v0.134h-5.551
      H23.948H3.504v-0.134c5.617-0.852,9.931-5.708,9.931-11.55c0-5.841-4.314-10.699-9.931-11.548V69.5
      c5.617-0.849,9.931-5.701,9.931-11.542c0-5.845-4.314-10.707-9.931-11.552v-2.017c5.617-0.853,9.931-5.705,9.931-11.546
      c0-5.842-4.314-10.703-9.931-11.552v-0.128h150.685v0.132c-5.612,0.849-9.924,5.703-9.924,11.548
      C144.265,38.687,148.583,43.543,154.189,44.392z"/>
    <path d="M136.085,31.093H21.611c-0.967,0-1.752,0.784-1.752,1.752v50.224c0,0.968,0.785,1.752,1.752,1.752h114.475
      c0.965,0,1.752-0.784,1.752-1.752V32.846C137.837,31.877,137.05,31.093,136.085,31.093z M134.333,81.317H23.363v-46.72h110.97
      V81.317z"/>
    <path d="M53.013,53.782v-5.421H35.876v5.421h2.521v-3.18h4.661v14.71h-3.022v2.236h8.82v-2.236h-3.028v-14.71h4.637v3.18H53.013z"/>
    <path d="M63.255,50.602v-2.241h-8.41v2.241h2.832v14.71h-2.832v2.236h8.41v-2.236h-2.806v-14.71H63.255z"/>
    <path d="M85.342,67.548v-2.236H82.44l-6.583-7.531l6.774-7.179h2.423v-2.241h-8.062v2.208h2.488l-6.966,7.279v0.19l8.225,9.51H85.342z"/>
    <path d="M65.652,65.312v2.236h8.6v-2.236h-2.996v-14.71h2.74v-2.241h-8.344v2.241h2.832v14.71H65.652z"/>
    <path d="M86.951,65.312v2.236h15.625v-5.481h-2.587v3.245h-7.433v-6.301h7.936v-2.24h-7.936v-6.169h7.371v3.146h2.546v-5.387
      H86.951v2.241h2.833v14.71H86.951z"/>
    <path d="M121.822,53.782v-5.421h-17.138v5.421h2.519v-3.18h4.664v14.71h-3.022v2.236h8.816v-2.236h-3.022v-14.71h4.63v3.18H121.822z"/>
    <path d="M29.787,64.672c2.739,0,4.969-2.229,4.969-4.969c0-2.738-2.229-4.962-4.969-4.962c-2.738,0-4.962,2.225-4.962,4.962
      C24.824,62.442,27.049,64.672,29.787,64.672z M126.744,64.672c2.737,0,4.962-2.229,4.962-4.969c0-2.738-2.225-4.962-4.962-4.962
      c-2.741,0-4.97,2.225-4.97,4.962C121.774,62.442,124.002,64.672,126.744,64.672z"/>
    <path d="M26.577,42.77h103.377c0.965,0,1.752-0.785,1.752-1.752c0-0.968-0.787-1.752-1.752-1.752H26.577
      c-0.967,0-1.752,0.784-1.752,1.752C24.824,41.984,25.61,42.77,26.577,42.77z"/>
    <path d="M26.577,76.937h103.377c0.965,0,1.752-0.785,1.752-1.752c0-0.969-0.787-1.752-1.752-1.752H26.577
      c-0.967,0-1.752,0.783-1.752,1.752C24.824,76.151,25.61,76.937,26.577,76.937z"/>
  </g>
</svg>
