<svg xmlns="http://www.w3.org/2000/svg" viewBox="0 0 64 64" role="img" aria-label="Food and drink">
  <rect width="64" height="64" rx="16" fill="#FED7AA"/>
  <g transform="translate(6 6) scale(0.1016)" fill="#C2410C">
    <path d="M92.174,116.067c-10.147-13.286-23.893-20.602-38.703-20.602s-28.556,7.317-38.703,20.602
      C5.244,128.535,0,144.961,0,162.319c0,32.307,18.425,59.331,42.825,65.52v178.497c0,5.633,4.566,10.199,10.199,10.199
      c5.633,0,10.199-4.566,10.199-10.199V228.067c11.026-2.491,21.074-9.185,28.949-19.497c9.523-12.469,14.767-28.894,14.767-46.251
      S101.697,128.535,92.174,116.067z M53.47,208.775c-18.236,0-33.072-20.84-33.072-46.455c0-25.615,14.836-46.455,33.072-46.455
      c18.236,0,33.073,20.84,33.073,46.455C86.543,187.935,71.708,208.775,53.47,208.775z"/>
    <path d="M501.801,96.655c-5.633,0-10.199,4.566-10.199,10.199v55.465c0,33.156-9.185,42.646-17.966,45.363V106.854
      c0-5.633-4.566-10.199-10.199-10.199c-5.633,0-10.199,4.566-10.199,10.199v100.529c-8.5-3.087-17.074-13.031-17.074-45.064
      v-55.465c0-5.633-4.566-10.199-10.199-10.199s-10.199,4.566-10.199,10.199v55.465c0,39.121,12.599,61.224,37.473,65.902v178.114
      c0,5.633,4.566,10.199,10.199,10.199c5.633,0,10.199-4.566,10.199-10.199v-177.96C499.098,224.06,512,201.903,512,162.319v-55.465
      C512,101.221,507.434,96.655,501.801,96.655z"/>
    <path d="M259.673,100.693c-85.144,0-154.415,69.27-154.415,154.415s69.27,154.415,154.415,154.415s154.415-69.27,154.415-154.415
      C414.088,169.964,344.818,100.693,259.673,100.693z M259.673,389.124c-73.897,0-134.016-60.119-134.016-134.017
      c0-73.897,60.119-134.016,134.016-134.016s134.017,60.119,134.017,134.016C393.689,329.005,333.57,389.124,259.673,389.124z"/>
    <path d="M351.911,294.396c-4.93-2.727-11.134-0.942-13.863,3.985c-0.886,1.602-1.835,3.196-2.817,4.741
      c-3.026,4.751-1.627,11.056,3.124,14.081c1.698,1.082,3.594,1.598,5.469,1.598c3.37,0,6.668-1.67,8.612-4.722
      c1.208-1.895,2.371-3.853,3.46-5.821C358.624,303.33,356.84,297.124,351.911,294.396z"/>
    <path d="M259.673,145.198c-60.604,0-109.91,49.305-109.91,109.91s49.305,109.91,109.91,109.91c25.427,0,50.221-8.886,69.818-25.02
      c4.349-3.581,4.972-10.008,1.391-14.356c-3.581-4.348-10.008-4.971-14.356-1.391c-15.955,13.136-36.145,20.37-56.852,20.37
      c-49.357,0-89.511-40.154-89.511-89.511s40.154-89.511,89.511-89.511c49.357,0,89.511,40.154,89.511,89.511
      c0,5.633,4.566,10.199,10.199,10.199c5.633,0,10.199-4.566,10.199-10.199C369.581,194.504,320.276,145.198,259.673,145.198z"/>
  </g>
</svg>
